<svg xmlns="http://www.w3.org/2000/svg" width="100%" height="100%" viewBox="0 0 512 512" version="1.1">
	<path d="M 195.293 66.616 C 192.568 68.943, 178 106.202, 178 110.846 C 178 117.245, 185.435 121.185, 190.636 117.542 C 192.867 115.980, 194.095 113.343, 201.543 94.113 L 206.341 81.727 218.920 82.413 C 290.472 86.317, 361.002 110.927, 419.963 152.561 C 432.172 161.182, 447.919 173.796, 449.299 176.060 C 450.454 177.954, 426.133 241.750, 417.108 260.500 C 399.693 296.684, 371.504 326.413, 336.500 345.510 C 328.622 349.808, 312.640 357, 310.966 357 C 310.495 357, 312.976 351.263, 316.480 344.250 C 327.824 321.549, 335.412 295.363, 337.956 270.144 C 338.530 264.448, 339 238.890, 339 213.349 L 339 166.909 336.656 164.565 C 333.985 161.894, 307.751 152.942, 288.500 148.132 C 214.260 129.583, 135.024 132.732, 62.500 157.115 C 54.250 159.888, 46.457 163.129, 45.183 164.316 L 42.866 166.475 43.288 221.487 C 43.643 267.764, 43.977 277.850, 45.391 285 C 54.465 330.888, 71.864 365.118, 101.985 396.346 C 119.179 414.171, 138.032 428.025, 159.415 438.546 C 172.797 445.130, 179.741 447, 190.816 447 C 204.901 447, 215.626 443.189, 236.510 430.762 C 255.160 419.665, 270.064 407.359, 284.582 391.069 L 293.879 380.637 308.676 375.810 C 362.444 358.270, 406.106 320.776, 431.338 270.475 C 438.430 256.338, 469 177.510, 469 173.362 C 469 169.791, 465.260 165.982, 448.838 152.829 C 382.567 99.751, 297.962 68.088, 215 65.317 C 198.821 64.777, 197.333 64.875, 195.293 66.616 M 168.500 153.623 C 137.020 155.681, 102.339 162.227, 72.500 171.745 L 60.500 175.573 60.236 219.536 C 60.027 254.132, 60.292 265.950, 61.476 275 C 67.981 324.731, 93.358 369.990, 132.140 401.028 C 147.505 413.325, 167.418 424.968, 178.933 428.388 C 185.187 430.245, 195.691 430.482, 201.500 428.898 C 208.100 427.098, 224.790 418.337, 236.500 410.525 C 278.818 382.296, 308.720 337.022, 318.416 286.500 C 321.293 271.505, 322 257.808, 322 217.030 L 322 176.272 317.750 174.662 C 296.254 166.521, 262.145 158.797, 233 155.472 C 219.823 153.968, 180.476 152.840, 168.500 153.623 M 115.500 218.078 C 92.348 221.989, 77.067 236.473, 80.879 250.891 C 84.841 265.872, 104.663 275.937, 130.292 275.983 C 146.720 276.012, 161.924 271.736, 171.579 264.372 C 176.941 260.282, 180.981 252.602, 180.981 246.500 C 180.981 229.547, 158.948 216.775, 130.292 217.117 C 124.906 217.181, 118.250 217.614, 115.500 218.078 M 234 218.516 C 213.039 222.799, 200.714 233.161, 200.714 246.500 C 200.714 262.551, 219.031 274.445, 245.739 275.735 C 269.734 276.894, 289.635 270.065, 297.678 257.911 C 303.413 249.244, 301.495 237.154, 293.234 229.901 C 288.112 225.403, 276.843 220.377, 267.792 218.553 C 258.580 216.697, 242.988 216.680, 234 218.516 M 114.035 236.065 C 106.147 238.130, 99.788 241.660, 98.026 244.951 C 96.333 248.114, 101.141 252.591, 109.500 255.635 C 123.263 260.647, 143.391 259.894, 155.748 253.905 C 165.944 248.963, 166.366 244.694, 157.155 239.681 C 146.635 233.955, 128.047 232.396, 114.035 236.065 M 236.248 235.452 C 228.976 237.107, 220.293 241.558, 218.276 244.663 C 217.003 246.624, 217.134 247.116, 219.686 249.956 C 226.745 257.808, 250.127 261.386, 266.813 257.167 C 276.749 254.654, 283.363 250.610, 283.811 246.774 C 284.064 244.608, 283.362 243.606, 280.057 241.419 C 277.821 239.939, 273.406 237.849, 270.246 236.774 C 262.607 234.176, 244.879 233.486, 236.248 235.452 M 127.465 330.952 C 124.628 332.102, 123.119 334.157, 122.372 337.889 C 121.800 340.749, 122.223 341.557, 126.372 345.532 C 132.461 351.367, 150.522 360.193, 163.500 363.676 C 172.549 366.105, 175.164 366.360, 191 366.360 C 206.832 366.360, 209.451 366.105, 218.477 363.680 C 229.700 360.665, 245.988 353.033, 253.500 347.268 C 257.908 343.886, 258.536 342.939, 258.805 339.271 C 259.034 336.145, 258.605 334.605, 257.080 333.080 C 253.018 329.018, 250.707 329.351, 240.635 335.444 C 222.466 346.437, 206.315 350.682, 186.500 349.673 C 169.010 348.783, 155.826 344.525, 140.026 334.665 C 132.400 329.905, 131.039 329.503, 127.465 330.952" stroke="none" fill="black" fill-rule="evenodd"/>
</svg>